<svg xmlns="http://www.w3.org/2000/svg" viewBox="0 0 100 100">
  <rect width="100" height="100" fill="#06101d"/>
  <!-- Thermal column -->
  <path d="M30 82 Q26 60 32 40 Q36 26 34 14" fill="none" stroke="#6dff4a" stroke-opacity="0.45" stroke-width="4" stroke-linecap="round"/>
  <path d="M62 84 Q58 62 64 42 Q68 30 66 20" fill="none" stroke="#6dff4a" stroke-opacity="0.3" stroke-width="4" stroke-linecap="round"/>
  <!-- Cumulus marking the lift -->
  <g fill="#eaf4ff" fill-opacity="0.85">
    <circle cx="34" cy="16" r="9"/><circle cx="24" cy="21" r="7"/><circle cx="44" cy="21" r="7"/>
  </g>
  <!-- Glider -->
  <g transform="rotate(-12 52 56)">
    <path d="M30 56 L66 50 L74 56 L66 62 Z" fill="#00eaff"/>
    <rect x="46" y="44" width="4" height="24" fill="#00eaff"/>
  </g>
  <!-- Ridge -->
  <path d="M0 92 L22 80 L40 88 L58 74 L78 86 L100 78 L100 100 L0 100 Z" fill="#0e2018"/>
</svg>
